<svg xmlns="http://www.w3.org/2000/svg" viewBox="0 0 512 512"><title>Heart</title><g id="Heart"><g id="Heart-2" data-name="Heart"><path d="M255.9932,447.628c-105.6572,0-191.619-85.9617-191.619-191.628,0-105.6618,85.9618-191.628,191.619-191.628,105.6717,0,191.6326,85.9662,191.6326,191.628C447.6258,361.6663,361.6649,447.628,255.9932,447.628Zm0-364.3506C160.7552,83.2774,83.2707,160.762,83.2707,256c0,95.247,77.4845,172.7316,172.7225,172.7316,95.2471,0,172.7316-77.4846,172.7316-172.7316C428.7248,160.762,351.24,83.2774,255.9932,83.2774Z" id="id_103" style="fill: rgb(255, 255, 255);"></path><path d="M256.1957,343.1128s62.5824-50.8617,82.9467-73.485c18.5581-20.637,19.6219-51.4422,0-71.064a50.2343,50.2343,0,0,0-71.0549,0L256.1957,210.442l-.1934-.1935-.2016.2025-11.8836-11.8872a50.2589,50.2589,0,0,0-71.055,0c-19.6255,19.6218-18.5671,50.436,0,71.0685,20.36,22.6269,82.9386,73.485,82.9386,73.485" id="id_104" style="fill: rgb(255, 255, 255);"></path></g></g></svg>